<?xml version="1.0" encoding="UTF-8" standalone="no"?>
<!DOCTYPE svg PUBLIC "-//W3C//DTD SVG 1.1//EN" "http://www.w3.org/Graphics/SVG/1.1/DTD/svg11.dtd">
<!-- Created with Vectornator (http://vectornator.io/) -->
<svg height="1024.0px" stroke-miterlimit="10" style="fill-rule:nonzero;clip-rule:evenodd;stroke-linecap:round;stroke-linejoin:round;" version="1.1" viewBox="0 0 1024 1024" width="1024.0px" xml:space="preserve" xmlns="http://www.w3.org/2000/svg" xmlns:xlink="http://www.w3.org/1999/xlink">
<defs/>
<clipPath id="ArtboardFrame">
<rect height="1024" width="1024" x="0" y="0"/>
</clipPath>
<g clip-path="url(#ArtboardFrame)" id="Layer-1">
<path d="M618.575-184.173L621.153-185.892" fill="none" opacity="1" stroke="currentColor" stroke-linecap="round" stroke-linejoin="round" stroke-width="54"/>
<path d="M245.013 120.285C245.013 132.95 252.557 145.186 255.082 157.946C265.777 212.006 264.521 268.761 275.22 322.838C279.6 344.978 282.412 371.259 275.22 393.07" fill="none" opacity="1" stroke="currentColor" stroke-linecap="round" stroke-linejoin="round" stroke-width="17.6538"/>
<path d="M732.356 96.8748C726.746 96.8748 718.684 142.409 716.246 149.803C698.559 203.44 693.074 268.828 704.163 324.874C707.364 341.054 718.26 361.478 718.26 377.802" fill="none" opacity="1" stroke="currentColor" stroke-linecap="round" stroke-linejoin="round" stroke-width="17.6538"/>
<path d="M137.273 356.427C135.604 355.302 127.169 344.213 133.246 344.213C135.539 344.213 184.127 372.128 188.626 375.766C211.354 394.147 236.97 398.775 263.137 409.355C281.185 416.653 298.173 429.099 315.496 437.855C318.35 439.298 333.12 449.305 335.634 448.034C342.877 444.373 362.756 391.669 376.918 401.213C390.226 410.181 372.431 468.944 382.959 479.587C386.338 483.003 399.048 481.103 404.104 483.659C451.502 507.615 519.022 506.712 530.975 567.122C533.194 578.342 526.674 587.098 524.933 597.658C523.346 607.283 522.008 620.568 516.878 629.211C499.8 657.984 438.627 666.508 409.139 651.604C392.726 643.309 363.699 630.734 352.752 615.979C341.285 600.524 322.666 571.878 306.434 562.033C240.405 521.985 170.66 485.775 102.032 451.087" fill="none" opacity="1" stroke="currentColor" stroke-linecap="round" stroke-linejoin="round" stroke-width="17.6538"/>
<path d="M276.227 558.98C265.454 580.759 287.205 652.198 282.268 682.14C269.04 762.37 257.096 842.819 257.096 925.406" fill="none" opacity="1" stroke="currentColor" stroke-linecap="round" stroke-linejoin="round" stroke-width="17.6538"/>
<path d="M287.303 696.39C286.138 696.978 281.261 699.114 281.261 695.372C281.261 694.211 320.173 702.831 323.552 703.515C349.658 708.792 371.622 721.103 400.077 714.711C476.646 697.51 553.436 739.57 631.666 719.8C659.87 712.672 690.662 710.315 719.267 704.532C724.98 703.377 756.522 693.791 756.522 695.372" fill="none" opacity="1" stroke="currentColor" stroke-linecap="round" stroke-linejoin="round" stroke-width="17.6538"/>
<path d="M513.857 529.462C543.813 519.368 569.213 501.477 599.444 493.837C603.98 492.691 625.427 484.454 626.631 479.587C629.691 467.215 568.476 419.996 594.41 404.266C597.503 402.39 641.87 457.229 657.845 461.266C677.494 466.232 691.53 448.821 707.184 440.909C746.259 421.159 783.116 399.476 821.971 379.838" fill="none" opacity="1" stroke="currentColor" stroke-linecap="round" stroke-linejoin="round" stroke-width="17.6538"/>
<path d="M515.871 638.372C523.88 638.372 534.807 644.847 543.058 646.515C579.51 653.885 634.591 655.326 665.9 636.336C686.014 624.137 692.089 605.11 705.17 587.479C719.11 568.69 751.363 561.619 769.612 547.783C786.24 535.177 803.551 522.313 821.971 511.141C832.416 504.806 846.555 492.819 859.227 492.819" fill="none" opacity="1" stroke="currentColor" stroke-linecap="round" stroke-linejoin="round" stroke-width="17.6538"/>
<path d="M723.294 377.802C723.294 394.811 727.082 402.764 734.37 417.498" fill="none" opacity="1" stroke="currentColor" stroke-linecap="round" stroke-linejoin="round" stroke-width="17.6538"/>
<path d="M746.453 576.283C746.453 570.983 745.446 580.897 745.446 582.39C745.446 591.383 744.312 603.252 746.453 611.908C752.256 635.372 752.786 661.222 757.529 685.193C762.836 712.019 771.275 738.032 775.653 764.586C779.789 789.668 773.6 817.352 779.681 841.942C784.192 860.182 790.472 895.447 781.695 913.192" fill="none" opacity="1" stroke="currentColor" stroke-linecap="round" stroke-linejoin="round" stroke-width="17.6538"/>
<path d="M417.194 243.445C417.194 275.077 395.517 307.936 402.09 341.159C403.905 350.329 430.742 323.301 436.325 328.945C443.643 336.342 449.158 413.947 443.374 425.641" fill="none" opacity="1" stroke="currentColor" stroke-linecap="round" stroke-linejoin="round" stroke-width="17.6538"/>
<path d="M577.292 281.106C577.292 274.438 560.666 294.552 557.154 297.392C549.652 303.459 522.709 324.919 520.906 334.034C519.762 339.814 565.21 328.738 565.21 342.177C565.21 344.87 552.46 356.308 550.106 359.481C541.766 370.721 539.274 388.506 532.988 401.213" fill="none" opacity="1" stroke="currentColor" stroke-linecap="round" stroke-linejoin="round" stroke-width="17.6538"/>
<path d="M522.919 820.567C522.919 815.237 522.74 826.603 522.919 827.692C524.239 835.698 523.926 843.896 523.926 852.121C523.926 873.175 528.961 893.183 528.961 914.21" fill="none" opacity="1" stroke="currentColor" stroke-linecap="round" stroke-linejoin="round" stroke-width="17.6538"/>
</g>
</svg>
