<?xml version="1.0" encoding="UTF-8" standalone="no"?>
<!DOCTYPE svg PUBLIC "-//W3C//DTD SVG 1.1//EN" "http://www.w3.org/Graphics/SVG/1.1/DTD/svg11.dtd">
<!-- Created with Vectornator (http://vectornator.io/) -->
<svg height="1024.0px" stroke-miterlimit="10" style="fill-rule:nonzero;clip-rule:evenodd;stroke-linecap:round;stroke-linejoin:round;" version="1.1" viewBox="0 0 1024 1024" width="1024.0px" xml:space="preserve" xmlns="http://www.w3.org/2000/svg" xmlns:xlink="http://www.w3.org/1999/xlink">
<defs/>
<g id="Layer-1">
<path d="M133.832 275.645C149.779 275.645 165.947 280.205 181.963 281.661C217.355 284.879 254.435 277.545 290.256 280.802C396.552 290.465 510.783 294.184 617.715 285.959C666.63 282.196 712.01 279.912 760.388 285.959C775.912 287.899 803.933 278.08 817.972 285.099C818.84 285.533 823.605 322.425 823.988 325.494C826.64 346.706 832.702 366.484 836.881 387.376C841.159 408.766 833.327 432.006 836.021 453.556C836.893 460.53 839.459 466.874 839.459 474.183C839.459 476.762 836.881 481.918 839.459 481.918C841.892 481.918 852.175 475.078 856.648 474.183C881.7 469.173 892.099 506.641 888.449 524.892C885.562 539.326 872.894 558.732 863.524 570.444C859.782 575.122 855.378 575.601 849.773 575.601C847.2 575.601 843.587 572.163 844.616 572.163C845.074 572.163 842.3 587.776 842.037 589.353C838.86 608.416 841.508 634.308 844.616 652.953C847.947 672.942 840.555 695.153 845.475 714.835C847.339 722.291 856.799 780.306 851.492 774.999" fill="none" opacity="1" stroke="currentColor" stroke-linecap="round" stroke-linejoin="round" stroke-width="17.3077"/>
<path d="M144.146 744.058C150.369 756.505 177.416 750.565 189.698 751.793C237.932 756.616 285.257 762.966 334.089 762.966C365.012 762.966 396.022 767.604 426.912 765.544C469.347 762.715 510.951 754.252 554.114 756.95C586.454 758.971 622.245 767.879 654.672 763.825C671.372 761.738 685.397 754.371 702.803 754.371C724.475 754.371 745.218 763.901 765.544 768.982C784.095 773.62 804.455 768.982 823.129 768.982C828.917 768.982 836.642 772.64 842.037 771.561C848.798 770.209 850.804 762.106 857.508 762.106" fill="none" opacity="1" stroke="currentColor" stroke-linecap="round" stroke-linejoin="round" stroke-width="17.3077"/>
<path d="M138.129 279.083C138.129 277.34 137.246 273.926 138.989 273.926C140.8 273.926 136.36 280.964 131.254 279.942C120.696 277.831 110.969 282.011 108.048 293.694C104.646 307.302 109.584 325.69 110.626 339.246C112.458 363.053 111.861 390.391 108.907 414.02C103.198 459.697 110.421 503.926 114.924 548.957C118.367 583.392 114.059 618.517 117.502 652.953C119.629 674.224 111.007 721.932 124.378 739.76C128.84 745.71 157.427 742.182 165.633 744.917" fill="none" opacity="1" stroke="currentColor" stroke-linecap="round" stroke-linejoin="round" stroke-width="17.3077"/>
<path d="M162.624 317.759C144.665 327.176 167.982 388.525 169.93 408.004C172.687 435.571 164.268 463.773 168.211 491.373C172.479 521.247 177.277 555.419 174.227 585.915C170.95 618.69 171.385 665.651 179.384 697.646C180.938 703.862 197.437 701.084 202.59 701.084C212.421 701.084 271.081 714.045 275.645 707.96C280.94 700.9 275.645 677.258 275.645 669.283C275.645 634.387 269.629 600.829 269.629 566.147C269.629 504.994 267.91 444.303 267.91 383.079C267.91 374.66 269.578 323.994 266.191 319.478C265.016 317.912 263.164 318.843 261.894 319.478C252.184 324.333 237.36 330.104 225.796 327.213C207.762 322.705 178.013 309.691 162.624 317.759Z" fill="none" opacity="1" stroke="currentColor" stroke-linecap="round" stroke-linejoin="round" stroke-width="17.3077"/>
<path d="M181.103 680.457C181.103 641.517 192.191 700.224 200.012 700.224C200.637 700.224 194.203 688.574 193.995 688.192C190.138 681.12 186.421 673.902 182.822 666.705C181.56 664.181 178.122 656.446 179.384 658.97C184.994 670.19 191.453 681.384 197.433 692.489C197.77 693.115 206.317 707.097 206.887 706.241C209.906 701.712 185.21 652.572 181.963 646.078C180.701 643.554 181.346 638.342 178.525 638.342C178.227 638.342 192.149 662.449 193.136 664.127C194.722 666.823 211.854 698.171 214.623 696.787C217.412 695.392 207.929 679.983 207.747 679.597C201.228 665.744 178.056 635.53 181.103 620.294C182.148 615.068 187.712 628.68 190.557 633.186C192.425 636.142 194.696 638.83 196.574 641.78C199.363 646.163 233.157 702.317 235.25 700.224C238.565 696.909 225.899 678.011 224.936 676.159C212.16 651.59 189.122 622.569 183.682 595.369C183.243 593.175 186.844 598.597 187.979 600.526C189.997 603.956 192.021 607.384 193.995 610.839C196.605 615.406 199.045 620.069 201.73 624.591C213.19 643.891 224.71 663.379 236.969 682.176C240.099 686.975 243.231 699.979 247.282 695.927C251.259 691.951 237.029 668.486 236.109 666.705C224.19 643.612 211.443 620.853 199.152 597.947C196.774 593.516 187.253 575.552 184.541 569.585C182.515 565.128 175.468 552.896 179.384 555.833C195.271 567.748 217.365 621.655 228.374 640.921C228.582 641.285 246.6 673.567 249.001 667.565C252.69 658.343 234.598 631.882 230.953 624.591C218.407 599.5 205.599 574.487 193.995 548.957C191.925 544.402 191.517 538.744 187.979 535.206C185.864 533.091 189.365 541.057 190.557 543.8C192.448 548.149 194.561 552.399 196.574 556.693C201.342 566.866 206.373 577.503 211.185 587.634C214.305 594.203 245.487 663.267 249.861 663.267C256.96 663.267 242.332 633.667 242.126 633.186C226.68 597.146 208.734 562.107 193.995 525.752C190.795 517.858 188.235 509.719 185.4 501.686C184.104 498.012 180.73 486.816 181.963 490.513C192.932 523.421 210.491 555.383 226.655 585.915C229.248 590.812 236.238 610.006 244.704 611.699C248.925 612.543 246.475 603.314 246.423 603.104C243.436 591.156 237.617 579.935 232.671 568.725C219.989 539.978 178.525 484.416 178.525 455.275C178.525 447.33 185.2 469.699 188.838 476.762C191.655 482.23 194.682 487.59 197.433 493.092C205.468 509.161 213.063 525.344 221.498 541.222C229.075 555.485 225.094 548.355 231.812 559.271C233.511 562.031 237.238 569.046 238.688 566.147C244.474 554.574 197.925 468.508 192.276 456.134C185.805 441.96 186.201 441.376 181.103 428.631C179.992 425.854 177.414 417.259 178.525 420.036C185.134 436.559 191.27 452.848 199.152 469.026C205.97 483.022 208.701 488.416 216.341 501.686C242.831 547.695 244.364 535.287 226.655 494.811C213.218 464.096 195.961 435.032 181.963 404.566C178.696 397.456 175.414 390.344 172.508 383.079C171.499 380.556 172.648 375.344 169.93 375.344C168.719 375.344 183.479 410.983 183.682 411.442C191.503 429.17 198.848 447.535 209.466 463.87C209.568 464.027 219.386 479.734 222.358 476.762C227.611 471.508 213.69 445.576 212.044 441.523C199.774 411.319 170.789 370.652 170.789 337.527C170.789 330.717 176.11 350.068 178.525 356.435C180.261 361.013 181.839 365.651 183.682 370.187C191.376 389.128 201.079 419.11 217.201 432.929C218.372 433.933 220.215 435.503 221.498 434.647C228.214 430.171 191.397 353.122 188.838 346.981C185.278 338.437 187.306 324.124 178.525 321.197C173.625 319.564 177.678 331.793 179.384 336.668C180.528 339.935 182.396 342.908 183.682 346.122C191.796 366.407 200.247 386.887 212.044 405.425C212.135 405.568 227.3 428.846 230.093 426.053C236.352 419.794 206.223 359.922 202.59 352.138C199.616 345.766 196.651 338.149 193.995 331.511C193.185 329.485 190.606 323.469 191.417 325.494C199.544 345.813 207.953 366.221 218.06 385.658C222.143 393.509 226.41 401.742 232.671 408.004C234.414 409.746 237.772 414.589 238.688 412.301C244.652 397.391 225.665 366.066 220.639 352.998C217.965 346.045 219.493 332.37 212.044 332.37C206.138 332.37 216.565 343.284 218.92 348.7C220.511 352.36 221.662 356.198 223.217 359.873C228.848 373.184 234.239 389.466 242.985 401.128C244.086 402.596 245.642 405.386 247.282 404.566C248.637 403.889 246.587 392.288 246.423 391.674C241.297 372.45 233.806 353.822 227.515 334.949C226.942 333.23 224.514 331.073 225.796 329.792C226.287 329.3 232.64 346.037 232.671 346.122C233.883 349.352 249.906 386.773 251.58 385.658C258.112 381.302 238.508 336.348 241.266 328.073C242.76 323.59 243.777 337.191 244.704 341.824C246.364 350.123 247.487 358.417 249.001 366.749C249.574 369.901 248.455 378.468 250.72 376.203C254.478 372.446 253.761 362.922 254.158 358.154C257.182 321.873 257.03 361.513 255.877 375.344C255.685 377.646 252.708 382.22 255.018 382.22C256.975 382.22 258.456 345.417 258.456 340.965C258.456 335.514 260.034 319.76 257.596 324.635C254.355 331.117 257.596 347.579 257.596 354.717C257.596 379.174 257.854 403.395 255.877 427.772C255.021 438.336 254.004 448.995 253.299 459.572C253.089 462.717 253.299 472.178 253.299 469.026C253.299 457.293 253.363 445.378 251.58 433.788C250.921 429.503 252.926 417.83 249.861 420.896C245.258 425.499 249.451 449.294 249.861 454.415C252.366 485.727 255.877 516.625 255.877 548.098C255.877 551.536 256.175 541.209 255.877 537.784C255.526 533.748 254.731 529.762 254.158 525.752C252.932 517.168 251.947 508.551 250.72 499.967C249.383 490.603 238.835 419.324 235.25 415.739C234.018 414.507 234.39 419.153 234.39 420.896C234.39 426.626 234.39 432.356 234.39 438.085C234.39 447.253 234.113 456.425 234.39 465.588C235.112 489.397 244.619 526.007 236.969 548.957C234.967 554.961 235.735 536.359 235.25 530.049C234.587 521.437 233.194 512.887 232.671 504.265C230.86 474.383 227.515 444.85 227.515 414.88C227.515 408.29 227.279 428.062 227.515 434.647C228.15 452.445 228.485 445.114 230.093 463.87C232.257 489.12 235.087 514.288 237.828 539.503C238.184 542.776 240.945 584.651 243.845 582.477C250.912 577.176 242.256 497.771 240.407 486.216C240.143 484.568 238.784 467.658 236.969 466.448C235.54 465.495 236.087 498.873 236.109 499.108C236.541 503.707 237.175 508.286 237.828 512.859C238.608 518.315 239.645 523.732 240.407 529.189C242.322 542.915 244.128 556.66 245.564 570.444C247.938 593.235 249.001 616.294 249.001 639.202C249.001 642.067 249.001 633.472 249.001 630.607C249.001 626.023 249.001 621.439 249.001 616.856C249.001 612.037 245.709 573.834 250.72 572.163C252.817 571.464 253.244 596.799 253.299 597.947C253.68 605.953 256.946 660.038 260.175 663.267C263.213 666.306 260.175 654.672 260.175 650.375C260.175 642.741 260.408 641.2 259.315 633.186C256.785 614.632 254.794 596.006 253.299 577.32C252.726 570.158 249.308 549.017 251.58 555.833C259.971 581.005 262.527 609.512 264.472 635.764C265.003 642.93 265.813 650.076 266.191 657.251C266.387 660.97 268.824 671.058 266.191 668.424C258.514 660.747 261.894 624.545 261.894 614.277C261.894 608.652 262.061 603.482 262.753 597.947C262.969 596.218 262.833 591.232 263.612 592.79C268.443 602.451 268.186 700.079 251.58 695.927C233.321 691.362 248.989 648.403 252.439 639.202C254.433 633.886 257.323 629.043 259.315 623.731C259.857 622.287 260.546 617.97 261.034 619.434C264.566 630.031 259.494 650.792 257.596 661.548C256.714 666.548 257.839 678.43 253.299 676.159C250.372 674.696 254.704 658.591 255.018 656.391C258.056 635.123 261.628 614.594 260.175 592.79C259.938 589.248 258.741 561.277 252.439 564.428" fill="none" opacity="1" stroke="currentColor" stroke-linecap="round" stroke-linejoin="round" stroke-width="17.3077"/>
</g>
</svg>
