<?xml version="1.0" encoding="UTF-8" standalone="no"?>
<!DOCTYPE svg PUBLIC "-//W3C//DTD SVG 1.1//EN" "http://www.w3.org/Graphics/SVG/1.1/DTD/svg11.dtd">
<!-- Created with Vectornator (http://vectornator.io/) -->
<svg height="1024.0px" stroke-miterlimit="10" style="fill-rule:nonzero;clip-rule:evenodd;stroke-linecap:round;stroke-linejoin:round;" version="1.1" viewBox="0 0 1024 1024" width="1024.0px" xml:space="preserve" xmlns="http://www.w3.org/2000/svg" xmlns:xlink="http://www.w3.org/1999/xlink">
<defs/>
<g id="Layer-1">
<path d="M375.025 319.093C373.724 316.288 370.755 329.88 369.684 332.768C366.097 342.437 361.962 351.821 354.33 358.677C329.09 381.354 296.252 405.841 296.252 445.043C296.252 476.606 295.231 512.229 300.925 542.924C304.456 561.957 297.903 583.15 302.26 601.941C305.869 617.503 326.997 634.368 337.641 645.843C354.401 663.912 363.449 690.941 379.698 708.458C382.888 711.898 388.64 710.902 392.382 714.936" fill="none" opacity="1" stroke="currentColor" stroke-linecap="round" stroke-linejoin="round" stroke-width="17.7308"/>
<path d="M667.419 710.617C662.336 705.137 667.046 693.175 665.416 686.147C659.132 659.045 661.401 642.973 681.438 625.691C689.809 618.471 706.502 614.109 711.478 603.38C723.547 577.357 722.074 530.951 716.819 502.62C708.514 457.853 716.958 404.029 694.121 362.996C689.321 354.37 678.209 357.807 670.757 355.798C638.628 347.139 617.351 352.275 617.351 305.418" fill="none" opacity="1" stroke="currentColor" stroke-linecap="round" stroke-linejoin="round" stroke-width="17.7308"/>
<path d="M371.687 324.851C371.687 318.826 375.532 313.913 374.357 307.578C370.411 286.306 346.528 271.77 341.646 250.72C335.901 225.942 345.324 202.125 354.33 179.469C381.599 110.871 470.6 92.1637 531.903 103.179C553.236 107.012 571.889 118.825 589.981 130.528C601.74 138.134 613.627 144.367 622.024 156.438C642.678 186.128 645.379 229.171 637.378 263.675C633.229 281.569 619.354 299.066 619.354 317.654" fill="none" opacity="1" stroke="currentColor" stroke-linecap="round" stroke-linejoin="round" stroke-width="17.7308"/>
<path d="M392.382 714.936C392.304 715.102 405.916 737.175 403.73 746.603C401.994 754.091 395.683 760.51 394.384 768.914C389.078 803.241 386.325 849.933 407.068 879.75C418.055 895.543 438.762 903.672 454.465 912.137C521.023 948.016 615.724 936.822 663.413 872.553C683.232 845.844 680.942 769.656 673.427 737.247C671.357 728.322 659.987 717.624 656.07 709.178" fill="none" opacity="1" stroke="currentColor" stroke-linecap="round" stroke-linejoin="round" stroke-width="17.7308"/>
<path d="M410.582 324.635C398.432 324.635 414.259 345.119 418.318 357.295C427.149 383.791 429.004 413.194 432.929 440.664C438.379 478.814 434.354 518.538 439.804 556.693C443.569 583.044 447.39 618.911 444.102 645.218C442.433 658.566 438.085 672.384 438.085 685.613" fill="none" opacity="1" stroke="currentColor" stroke-linecap="round" stroke-linejoin="round" stroke-width="17.7308"/>
<path d="M579.039 318.619C568.979 338.737 566.899 371.149 564.428 393.393C553.616 490.697 549.442 587.258 622.872 660.689" fill="none" opacity="1" stroke="currentColor" stroke-linecap="round" stroke-linejoin="round" stroke-width="17.7308"/>
<path d="M406.285 267.91C383.302 244.926 406.63 202.989 421.755 182.822C446.189 150.244 477.241 139.601 517.157 147.584C558.797 155.912 602.401 217.748 581.617 259.315" fill="none" opacity="1" stroke="currentColor" stroke-linecap="round" stroke-linejoin="round" stroke-width="17.7308"/>
<path d="M444.102 744.917C438.246 756.627 444.675 778.151 447.54 789.61C460.104 839.867 470.166 875.557 530.908 875.557C540.763 875.557 550.257 878.885 560.13 876.416C601.918 865.97 615.759 810.412 620.294 774.139C622.359 757.612 630.9 735.188 622.872 719.133" fill="none" opacity="1" stroke="currentColor" stroke-linecap="round" stroke-linejoin="round" stroke-width="17.7308"/>
<path d="M485.356 262.323C479.257 262.508 490.528 289.324 488.794 297.991C486.735 308.29 478.069 316.378 475.902 327.213C474.248 335.484 468.21 351.909 474.183 359.873C482.43 370.869 506.828 354.809 508.562 344.403C511.659 325.821 494.034 313.875 490.513 296.272C488.795 287.68 495.27 262.023 485.356 262.323Z" fill="none" opacity="1" stroke="currentColor" stroke-linecap="round" stroke-linejoin="round" stroke-width="17.7308"/>
<path d="M492.232 325.924C498.181 322.413 490.308 350.587 489.654 353.857C489.19 356.174 485.572 360.733 487.935 360.733C490.727 360.733 500.184 335.953 497.389 334.089C490.092 329.225 481.059 354.717 481.059 354.717C481.059 354.717 489.227 340.948 490.513 333.23C490.846 331.232 493.398 327.213 491.373 327.213C489.947 327.213 482.441 346.796 487.075 337.527C489.107 333.463 488.34 328.222 492.232 325.924Z" fill="none" opacity="1" stroke="currentColor" stroke-linecap="round" stroke-linejoin="round" stroke-width="17.7308"/>
<path d="M490.513 434.647C490.513 441.389 494.578 447.861 495.67 454.415C499.592 477.95 489.17 503.622 483.637 525.752C481.407 534.674 482.95 553.656 495.67 551.536C519.2 547.614 532.823 515.067 524.033 493.092C519.947 482.877 504.936 480.12 502.546 468.167C500.757 459.223 498.691 449.777 497.389 440.664C496.739 436.117 496.529 422.319 496.529 426.912C496.529 452.664 507.97 484.289 501.686 509.422C500.715 513.308 486.067 544.586 493.092 548.098C493.665 548.384 494.426 547.751 494.811 547.238C503.194 536.06 505.017 513.182 509.422 499.967C510.169 497.726 508.778 493.092 511.141 493.092C513.432 493.092 511.141 497.675 511.141 499.967C511.141 510.065 506.843 519.873 506.843 530.049C506.843 531.768 506.843 535.206 506.843 535.206C506.843 535.206 507.174 532.824 507.703 531.768C509.31 528.554 516.131 505.124 518.876 505.124C520.823 505.124 517.636 529.95 516.297 532.627" fill="none" opacity="1" stroke="currentColor" stroke-linecap="round" stroke-linejoin="round" stroke-width="17.7308"/>
<path d="M511.141 636.624C504.149 651.199 516.314 672.656 512 689.911C508.007 705.883 499.981 719.2 503.405 736.322C505.386 746.227 505.145 765.11 520.595 761.247C538.513 756.767 573.388 733.207 559.271 709.679C550.636 695.286 534.915 686.562 526.611 672.721C519.844 661.443 520.269 648.005 514.578 636.624C513.291 634.048 513.719 628.029 513.719 628.029C513.719 628.029 512.434 633.927 511.141 636.624Z" fill="none" opacity="1" stroke="currentColor" stroke-linecap="round" stroke-linejoin="round" stroke-width="17.7308"/>
<path d="M522.314 689.051C520.497 683.601 519.152 702.065 518.876 705.381C517.931 716.72 517.157 728.398 517.157 739.76C517.157 742.052 514.865 746.636 517.157 746.636C518.396 746.636 518.016 740.246 518.016 739.76C518.016 724.088 522.847 707.546 526.611 692.489C526.965 691.072 526.01 688.192 527.471 688.192C530.622 688.192 527.471 694.495 527.471 697.646C527.471 711.448 524.027 726.053 522.314 739.76C522.136 741.182 520.881 744.058 522.314 744.058C525.583 744.058 531.713 708.734 532.627 705.381C533.487 702.23 533.394 693.209 535.206 695.927C540.207 703.429 534.11 721.342 533.487 729.447C533.159 733.713 532.627 738.063 532.627 742.339C532.627 742.912 532.371 744.57 532.627 744.058C537.177 734.959 536.857 722.82 539.503 713.117C540.385 709.881 540.57 701.291 542.941 703.662C546.452 707.173 543.8 723.046 543.8 727.728C543.8 730.02 541.751 735.628 543.8 734.603C545.231 733.888 552.407 708.548 553.255 709.679C554.08 710.779 555.833 735.647 555.833 725.149" fill="none" opacity="1" stroke="currentColor" stroke-linecap="round" stroke-linejoin="round" stroke-width="17.7308"/>
<path d="M496.529 538.644C489.697 535.228 488.872 518.719 492.232 512" fill="currentColor" fill-rule="nonzero" opacity="1" stroke="currentColor" stroke-linecap="round" stroke-linejoin="round" stroke-width="17.7308"/>
<path d="M495.67 501.686C490.776 506.581 487.794 533.346 493.092 538.644" fill="currentColor" fill-rule="nonzero" opacity="1" stroke="currentColor" stroke-linecap="round" stroke-linejoin="round" stroke-width="17.7308"/>
<path d="M502.546 518.876C502.546 497.281 494.197 537.416 499.108 547.238" fill="currentColor" fill-rule="nonzero" opacity="1" stroke="currentColor" stroke-linecap="round" stroke-linejoin="round" stroke-width="17.7308"/>
<path d="M505.124 512C492.336 505.606 496.529 564.455 496.529 546.379" fill="currentColor" fill-rule="nonzero" opacity="1" stroke="currentColor" stroke-linecap="round" stroke-linejoin="round" stroke-width="17.7308"/>
</g>
</svg>
