<?xml version="1.0" encoding="UTF-8" standalone="no"?>
<!DOCTYPE svg PUBLIC "-//W3C//DTD SVG 1.1//EN" "http://www.w3.org/Graphics/SVG/1.1/DTD/svg11.dtd">
<!-- Created with Vectornator (http://vectornator.io/) -->
<svg height="1024.0px" stroke-miterlimit="10" style="fill-rule:nonzero;clip-rule:evenodd;stroke-linecap:round;stroke-linejoin:round;" version="1.1" viewBox="0 0 1024 1024" width="1024.0px" xml:space="preserve" xmlns="http://www.w3.org/2000/svg" xmlns:xlink="http://www.w3.org/1999/xlink">
<defs/>
<g id="Layer-1">
<path d="M628.888 603.104C628.888 614.352 649.41 587.55 652.094 584.196C662.68 570.963 695.806 532.999 684.754 514.578C652.816 461.348 572.641 467.26 533.487 418.318C505.878 383.806 506.175 333.612 564.428 345.262C599.844 352.346 643.044 380.046 668.424 405.425C672.214 409.215 674.958 415.534 679.597 418.318C705.382 433.789 731.218 445.86 755.231 463.87C761.166 468.321 770.893 469.218 776.718 475.043C786.508 484.834 788.029 500.996 785.312 514.578C779.086 545.711 753.831 589.892 732.025 611.699C723.254 620.469 720.536 636.939 711.398 646.078C700.877 656.598 681.874 675.95 678.738 691.63C671.075 729.943 668.781 785.737 675.3 824.848C677.804 839.873 679.596 866.105 672.721 879.854" fill="none" opacity="1" stroke="currentColor" stroke-linecap="round" stroke-linejoin="round" stroke-width="18.2464"/>
<path d="M534.346 563.568C532.103 568.055 541.688 575.745 542.941 580.758C549.393 606.567 598.536 608.924 618.575 602.245" fill="none" opacity="1" stroke="currentColor" stroke-linecap="round" stroke-linejoin="round" stroke-width="18.2464"/>
<path d="M410.582 575.601C410.582 583.65 417.674 601.957 412.301 609.12C397.335 629.075 357.146 632.184 334.949 636.624C321.837 639.246 316.197 656.469 309.165 665.846C297.396 681.536 297.178 709.354 294.553 727.728C288.98 766.74 281.565 806.422 273.926 844.616C270.317 862.66 276.505 882.471 276.505 899.622" fill="none" opacity="1" stroke="currentColor" stroke-linecap="round" stroke-linejoin="round" stroke-width="18.2464"/>
<path d="M379.641 750.933C374.135 753.686 381.36 779.458 381.36 786.172C381.36 824.158 388.236 860.736 388.236 898.763" fill="none" opacity="1" stroke="currentColor" stroke-linecap="round" stroke-linejoin="round" stroke-width="18.2464"/>
<path d="M418.318 563.568C410.218 566.268 404.96 557.961 398.55 554.114C368.882 536.314 365.116 516.468 350.419 487.075C334.853 455.943 317.34 389.935 333.23 358.154C371.04 282.533 467.778 230.369 526.611 318.619" fill="none" opacity="1" stroke="currentColor" stroke-linecap="round" stroke-linejoin="round" stroke-width="18.2464"/>
<path d="M426.912 560.99C460.246 560.99 533.729 576.726 542.082 526.611C544.039 514.866 544.882 502.295 547.238 490.513C549.272 480.344 555.833 468.085 555.833 457.853" fill="none" opacity="1" stroke="currentColor" stroke-linecap="round" stroke-linejoin="round" stroke-width="18.2464"/>
<path d="M393.393 276.505C388.793 274.204 382.337 280.928 377.922 284.24C351.303 304.204 345.18 303.354 331.511 337.527C319.11 368.528 306.846 396.933 311.743 431.21C317.035 468.252 362.433 536.934 316.04 560.13" fill="none" opacity="1" stroke="currentColor" stroke-linecap="round" stroke-linejoin="round" stroke-width="18.2464"/>
<path d="M389.095 273.067C386.351 271.695 404.106 266.445 408.004 265.331C422.868 261.085 431.374 255.877 447.54 255.877C491.209 255.877 520.51 281.491 538.644 317.759" fill="none" opacity="1" stroke="currentColor" stroke-linecap="round" stroke-linejoin="round" stroke-width="18.2464"/>
<path d="M572.163 469.886C570.011 469.886 574.741 489.188 574.741 493.092C574.741 516.052 575.937 527.209 593.65 536.065" fill="none" opacity="1" stroke="currentColor" stroke-linecap="round" stroke-linejoin="round" stroke-width="18.2464"/>
<path d="M277.364 562.709C275.784 562.709 288.587 546.329 292.835 542.082C303.808 531.108 305.349 514.642 307.446 499.967C313.327 458.796 299.218 399.166 311.743 361.592" fill="none" opacity="1" stroke="currentColor" stroke-linecap="round" stroke-linejoin="round" stroke-width="18.2464"/>
<path d="M312.602 375.344C308.594 367.327 323.327 348.043 327.213 341.824C346.296 311.292 360.021 281.494 400.269 274.786" fill="none" opacity="1" stroke="currentColor" stroke-linecap="round" stroke-linejoin="round" stroke-width="18.2464"/>
<path d="M618.575 516.297C617.334 518.778 589.353 497.825 589.353 484.497" fill="none" opacity="1" stroke="currentColor" stroke-linecap="round" stroke-linejoin="round" stroke-width="18.2464"/>
<path d="M247.282 178.525C243.699 176.733 232.248 206.016 230.093 210.325C224.406 221.699 201.73 245.972 201.73 258.456C201.73 271.512 253.797 243.982 257.596 251.58C260.947 258.282 226.506 336.965 221.498 346.981" fill="none" opacity="1" stroke="currentColor" stroke-linecap="round" stroke-linejoin="round" stroke-width="18.2464"/>
<path d="M434.647 89.999C432.474 89.999 409.948 153.559 408.004 161.335C407.865 161.891 407.686 162.577 408.004 163.054C410.619 166.978 422.831 159.974 426.053 159.616C441.424 157.908 459.36 157.835 474.183 153.6C475.415 153.248 476.715 150.975 477.621 151.881C480.435 154.695 475.596 172.072 475.043 175.946C473.994 183.29 473.79 191.81 468.167 197.433" fill="none" opacity="1" stroke="currentColor" stroke-linecap="round" stroke-linejoin="round" stroke-width="18.2464"/>
<path d="M637.483 206.887C638.574 204.705 639.42 187.402 635.764 192.276C631.249 198.296 630.119 209.485 626.31 216.341C618.307 230.747 607.697 246.316 597.947 259.315C597.17 260.351 594.112 262.587 595.369 264.472C601.514 273.689 645.243 261.084 653.813 278.224C656.422 283.442 653.451 314.321 654.672 314.321" fill="none" opacity="1" stroke="currentColor" stroke-linecap="round" stroke-linejoin="round" stroke-width="18.2464"/>
</g>
</svg>
