<?xml version="1.0" encoding="UTF-8" standalone="no"?>
<!DOCTYPE svg PUBLIC "-//W3C//DTD SVG 1.1//EN" "http://www.w3.org/Graphics/SVG/1.1/DTD/svg11.dtd">
<!-- Created with Vectornator (http://vectornator.io/) -->
<svg height="1024.0px" stroke-miterlimit="10" style="fill-rule:nonzero;clip-rule:evenodd;stroke-linecap:round;stroke-linejoin:round;" version="1.1" viewBox="0 0 1024 1024" width="1024.0px" xml:space="preserve" xmlns="http://www.w3.org/2000/svg" xmlns:xlink="http://www.w3.org/1999/xlink">
<defs/>
<g id="Layer-1">
<path d="M193.013 283.733C182.08 283.733 221.391 298.939 228.545 304.305C257.607 326.101 292.231 342.226 324.857 358.538C336.369 364.294 352.65 373.821 365.064 376.304C366.214 376.534 369.739 375.544 369.739 378.174C369.739 380.087 354.528 386.31 352.908 387.525C344.973 393.477 338.693 405.144 332.337 412.772C305.871 444.531 284.817 484.603 255.662 513.758C247.463 521.957 228.545 543.077 228.545 555.836" fill="none" opacity="1" stroke="currentColor" stroke-linecap="round" stroke-linejoin="round" stroke-width="18.4615"/>
<path d="M782.101 222.019C768.712 222.019 745.277 250.427 736.283 259.422C703.657 292.048 668.338 324.25 632.491 352.928C628.068 356.466 591.691 388.21 593.219 391.265C597.01 398.847 627.18 411.642 635.297 416.512C662.779 433.001 690.673 451.681 719.452 466.07C731.247 471.968 744.421 473.411 755.919 479.161" fill="none" opacity="1" stroke="currentColor" stroke-linecap="round" stroke-linejoin="round" stroke-width="18.4615"/>
<path d="M377.22 698.9C373.037 696.809 388.016 685.785 391.246 683.939C407.755 674.505 431.154 661.407 450.155 658.693C499.722 651.611 550.687 647.942 599.764 657.757C619.529 661.71 641.441 671.783 661.478 671.783" fill="none" opacity="1" stroke="currentColor" stroke-linecap="round" stroke-linejoin="round" stroke-width="18.4615"/>
</g>
</svg>
