<?xml version="1.0" encoding="UTF-8" standalone="no"?>
<!DOCTYPE svg PUBLIC "-//W3C//DTD SVG 1.1//EN" "http://www.w3.org/Graphics/SVG/1.1/DTD/svg11.dtd">
<!-- Created with Vectornator (http://vectornator.io/) -->
<svg height="1024.0px" stroke-miterlimit="10" style="fill-rule:nonzero;clip-rule:evenodd;stroke-linecap:round;stroke-linejoin:round;" version="1.1" viewBox="0 0 1024 1024" width="1024.0px" xml:space="preserve" xmlns="http://www.w3.org/2000/svg" xmlns:xlink="http://www.w3.org/1999/xlink">
<defs/>
<clipPath id="ArtboardFrame">
<rect height="1024" width="1024" x="0" y="0"/>
</clipPath>
<g clip-path="url(#ArtboardFrame)" id="Layer-1">
<path d="M363.311 359.014C354.812 354.764 343.012 365.378 334.089 367.609C298.296 376.557 275.502 390.492 246.423 412.301C223.563 429.446 221.69 461.259 207.747 484.497C197.475 501.616 196.755 522.751 188.838 541.222C176.398 570.251 172.506 605.699 167.352 636.624C161.932 669.142 147.955 705.89 153.6 739.76C155.442 750.812 163.438 760.326 169.93 768.982C190.027 795.779 234.747 787.274 263.612 793.047C280.874 796.5 296.822 807.596 314.321 811.096C380.687 824.369 450.509 847.288 519.735 833.443C528.916 831.606 529.575 814.88 534.346 808.518C547.341 791.192 565.297 747.506 547.238 729.447C530.155 712.363 480.216 725.149 458.713 725.149C409.196 725.149 363.941 714.79 316.9 705.381C301.297 702.261 280.459 704.78 266.191 697.646" fill="none" opacity="1" stroke="currentColor" stroke-linecap="round" stroke-linejoin="round" stroke-width="17.1538"/>
<path d="M328.073 497.389C321.334 510.866 324.265 534.115 322.916 548.957C318.736 594.939 306.586 640.778 306.586 686.473" fill="none" opacity="1" stroke="currentColor" stroke-linecap="round" stroke-linejoin="round" stroke-width="17.1538"/>
<path d="M292.835 817.113C287.972 819.544 291.975 839.447 291.975 844.616C291.975 858.024 293.329 908.946 288.537 918.53" fill="none" opacity="1" stroke="currentColor" stroke-linecap="round" stroke-linejoin="round" stroke-width="17.1538"/>
<path d="M733.744 518.876C733.522 518.876 690.637 457.918 686.473 450.977C676.59 434.506 673.175 414.203 663.267 397.69C649.288 374.392 628.901 363.112 612.558 342.684C580.45 302.549 518.102 218.383 468.167 280.802C446.521 307.86 473.858 360.083 486.216 384.798C513.147 438.66 558.093 486.892 595.369 533.487C617.303 560.904 648.067 583.41 669.283 611.699C690.102 639.456 711.564 678.738 750.933 678.738C754.03 678.738 761.575 679.269 763.825 677.019C779.265 661.579 783.878 632.905 788.75 613.418C801.333 563.087 804.661 429.396 772.42 389.095C750.753 362.011 721.053 362.342 690.77 357.295C679.614 355.436 641.729 345.718 632.326 350.419" fill="none" opacity="1" stroke="currentColor" stroke-linecap="round" stroke-linejoin="round" stroke-width="17.1538"/>
<path d="M711.398 675.3C708.094 675.3 708.925 722.689 707.96 729.447C700.441 782.081 706.241 837.271 706.241 890.168" fill="none" opacity="1" stroke="currentColor" stroke-linecap="round" stroke-linejoin="round" stroke-width="17.1538"/>
<path d="M362.452 64.2149C354.693 68.0944 352.039 87.7189 349.56 95.1559C339.557 125.164 336.668 153.818 336.668 185.4C336.668 235.571 350.034 277.63 358.154 326.354C360.163 338.407 361.982 350.476 370.187 360.733C376.688 368.86 386.434 365.496 394.252 370.187C413.717 381.866 439.352 396.568 462.151 401.128C470.553 402.808 475.081 395.971 482.778 395.971" fill="none" opacity="1" stroke="currentColor" stroke-linecap="round" stroke-linejoin="round" stroke-width="17.1538"/>
<path d="M628.888 342.684C622.169 349.404 627.192 321.06 628.029 316.04C631.213 296.936 632.326 276.43 632.326 256.737C632.326 229.545 619.561 205.931 615.137 179.384C610.231 149.951 603.761 121.394 590.212 94.2964C540.438-5.25097 400.093-3.33313 351.279 94.2964" fill="none" opacity="1" stroke="currentColor" stroke-linecap="round" stroke-linejoin="round" stroke-width="17.1538"/>
<path d="M386.517 49.6038C366.697 39.694 341.849 92.4785 338.387 106.329C321.147 175.287 331.511 253.992 331.511 323.776C331.511 345.399 325.43 371.441 314.321 389.955C314.151 390.239 310.26 395.23 310.024 395.112C308.025 394.112 312.289 388.003 312.602 387.376C320.642 371.297 325.331 353.951 332.37 337.527C346.277 305.078 344.403 263.485 344.403 229.234C344.403 226.592 343.012 234.348 342.684 236.969C342.322 239.868 341.538 242.699 340.965 245.564C338.57 257.54 336.676 269.572 334.949 281.661C330.322 314.047 326.456 348.496 311.743 377.922C310.232 380.944 303.042 400.269 298.851 400.269C294.376 400.269 302.008 362.136 302.289 360.733C309.318 325.588 322.164 290.365 327.213 255.018C334.985 200.615 323.174 138.101 345.262 86.5612C372.454 23.1151 463.258-8.05352 525.752 16.9439C547.003 25.4445 544.822 49.1623 557.552 65.0743C597.204 114.639 613.718 173.882 635.764 232.671C642.577 250.838 639.222 272.248 647.797 289.397C664.387 322.577 671.053 351.026 703.662 372.765C704.671 373.438 711.25 381.36 711.398 381.36C712.011 381.36 707.497 370.981 707.1 370.187C704.935 365.857 703.046 361.245 700.224 357.295C683.1 333.321 663.031 312.678 646.937 288.537C643.452 283.31 639.801 277.142 637.483 271.348C637.208 270.66 633.09 263.612 633.186 263.612C638.03 263.612 641.822 286.669 642.64 289.397C649.503 312.273 664.962 331.463 675.3 352.138C677.008 355.554 699.408 381.317 702.803 377.922C705.918 374.807 707.843 364.316 711.398 359.873C715.717 354.474 731.238 342.116 729.447 334.949C727.883 328.693 720.292 324.15 716.554 319.478C698.367 296.744 683.87 273.902 663.267 253.299C611.529 201.561 634.628 125.249 590.212 71.9501C577.336 56.4984 562.205 41.3646 548.098 27.2576C547.753 26.9122 543.192 23.5689 542.941 23.8197C542.649 24.1114 548.314 31.4493 548.957 32.4144C559.768 48.6303 570.713 65.0485 581.617 81.4043C603.077 113.593 616.725 151.49 628.888 187.979C636.771 211.627 652.909 231.679 660.689 255.018C667.279 274.789 664.991 297.573 673.581 316.9C675.136 320.399 690.559 354.822 694.208 352.998C695.042 352.581 687.017 333.145 686.473 331.511C679.67 311.102 669.387 290.959 658.97 272.207C658.479 271.325 649.162 251.58 649.516 251.58C649.569 251.58 653.823 287.25 662.408 289.397C666.597 290.444 676.436 262.738 677.019 263.612C685.51 276.35 667.092 308.692 678.738 320.338C686.748 328.348 686.729 304.867 690.77 304.867C696.564 304.867 688.25 337.185 690.77 340.965C693.324 344.795 704.588 318.685 705.381 319.478C712.229 326.326 698.504 342.252 702.803 348.7C703.313 349.465 714.313 332.017 715.695 334.089C717.189 336.331 720.852 358.878 720.852 362.452" fill="none" opacity="1" stroke="currentColor" stroke-linecap="round" stroke-linejoin="round" stroke-width="17.1538"/>
<path d="M312.602 394.252C296.032 394.252 293.084 394.524 277.364 388.236C274.311 387.015 268.038 390.041 265.331 388.236C264.793 387.877 265.331 382.061 265.331 381.36C265.331 366.298 255.761 353.065 257.596 338.387C258.746 329.187 261.969 320.502 264.472 311.743C270.064 292.171 279.721 273.583 287.678 255.018C304.041 216.836 305.76 173.564 320.338 134.692C328.437 113.093 326.579 84.7542 338.387 65.0743C351.265 43.6102 371.172 37.907 389.955 23.8197C390.511 23.4028 395.112 20.2262 395.112 19.5223C395.112 19.2551 368.298 34.0634 366.749 34.9928C350.616 44.6728 335.331 63.1261 328.073 80.5448C313.469 115.594 307.446 150.295 307.446 187.979C307.446 201.252 309.174 213.809 311.743 226.655C311.975 227.813 313.438 229.258 312.602 230.093C311.375 231.321 309.238 215.574 309.165 214.623C308.322 203.665 308.305 192.074 308.305 181.103C308.305 152.249 319.557 120.064 330.651 93.4369C353.453 38.7128 360.539 28.4179 415.739 12.6465C424.133 10.2482 443.654-1.32887 452.696 3.19233C462.202 7.94504 435.091 15.1362 430.35 16.0844C429.78 16.1984 423.474 17.9287 423.474 17.8034C423.474 13.9171 461.008 0.0428049 465.588 2.33285C469.195 4.13605 444.534 10.7431 443.242 10.9276C426.851 13.2692 416.769 22.8141 404.566 33.2739C366.363 66.019 329.964 106.902 315.181 156.178C308.353 178.938 310.883 206.443 310.883 230.093C310.883 237.591 311.26 245.021 310.024 252.439C309.451 255.877 305.841 265.217 308.305 262.753C313.131 257.927 321.155 198.946 322.916 189.698C324.073 183.623 321.682 168.883 327.213 171.649C330.57 173.327 323.315 199.039 322.916 201.73C319.268 226.358 316.028 250.981 312.602 275.645C310.289 292.301 308.878 308.951 305.727 325.494C304.738 330.684 306.024 344.7 302.289 340.965C302.14 340.816 313.437 258.833 315.181 252.439C316.637 247.101 315.664 236.969 321.197 236.969C322.997 236.969 314.804 268.627 314.321 270.488C306.657 300.052 296.725 329.002 287.678 358.154C285.555 364.995 283.578 371.881 281.661 378.782C280.488 383.004 279.083 396.056 279.083 391.674C279.083 366.763 285.861 338.075 290.256 313.462C291.951 303.972 294.105 294.49 296.272 285.099C296.792 282.849 299.198 277.191 297.132 278.224C291.811 280.884 279.376 333.49 277.364 340.965C275.449 348.077 279.573 362.452 272.207 362.452C269.613 362.452 272.483 357.244 273.067 354.717C277.39 335.984 285.959 311.896 285.959 292.835C285.959 288.032 283.26 302.057 281.661 306.586C277.946 317.113 272.916 327.161 268.769 337.527C267.287 341.232 264.472 352.691 264.472 348.7C264.472 325.482 283.151 294.844 292.835 274.786C297.412 265.305 302.138 255.956 306.586 246.423C307.833 243.75 309.564 236.05 310.883 238.688C312.794 242.509 289.785 293.184 286.818 299.71C284.432 304.959 281.469 309.932 279.083 315.181C278.594 316.256 277.241 319.274 278.224 318.619C289.135 311.344 337.66 206.622 305.727 270.488" fill="none" opacity="1" stroke="currentColor" stroke-linecap="round" stroke-linejoin="round" stroke-width="17.1538"/>
<path d="M688.192 302.718C685.531 301.025 679.115 294.648 682.176 295.413C685.605 296.27 687.657 307.236 689.051 310.024C690.197 312.316 691.068 319.032 692.489 316.9C695.413 312.514 693.166 301.87 692.489 297.132C692.243 295.407 691.63 290.232 691.63 291.975C691.63 299.572 698.969 309.578 688.192 302.718Z" fill="none" opacity="1" stroke="currentColor" stroke-linecap="round" stroke-linejoin="round" stroke-width="17.1538"/>
<path d="M671.862 163.054C671.862 160.488 715.672 130.394 720.852 130.394" fill="none" opacity="1" stroke="currentColor" stroke-linecap="round" stroke-linejoin="round" stroke-width="17.1538"/>
<path d="M706.241 217.201C724.147 217.201 752.325 212.208 768.123 204.309" fill="none" opacity="1" stroke="currentColor" stroke-linecap="round" stroke-linejoin="round" stroke-width="17.1538"/>
<path d="M256.737 181.103C244.998 177.19 232.461 177.309 220.639 173.368C203.251 167.572 187.308 157.674 169.93 151.881" fill="none" opacity="1" stroke="currentColor" stroke-linecap="round" stroke-linejoin="round" stroke-width="17.1538"/>
<path d="M224.077 267.05C202.112 267.05 184.777 295.413 161.335 295.413" fill="none" opacity="1" stroke="currentColor" stroke-linecap="round" stroke-linejoin="round" stroke-width="17.1538"/>
<path d="M526.611 686.473C529.037 679.195 545.412 652.094 554.114 652.094" fill="none" opacity="1" stroke="currentColor" stroke-linecap="round" stroke-linejoin="round" stroke-width="17.1538"/>
<path d="M584.196 709.679C591.121 702.754 600.299 694.322 609.12 689.911" fill="none" opacity="1" stroke="currentColor" stroke-linecap="round" stroke-linejoin="round" stroke-width="17.1538"/>
<path d="M473.324 680.457C467.697 674.83 457.853 648.129 457.853 640.061" fill="none" opacity="1" stroke="currentColor" stroke-linecap="round" stroke-linejoin="round" stroke-width="17.1538"/>
<path d="M581.617 776.718C586.835 779.326 592.947 783.75 597.088 787.891" fill="none" opacity="1" stroke="currentColor" stroke-linecap="round" stroke-linejoin="round" stroke-width="17.1538"/>
</g>
</svg>
